# xmcd CD database file
#
# Track frame offsets:
#	150
#	28155
#	64234
#	98050
#	120482
#	148590
#	177606
#	205404
#	225620
#	249813
#	272627
#
# Disc length: 4082 seconds
#
# Revision: 1
# Processed by: cddbd v1.5.1PL2 Copyright (c) Steve Scherf et al.
# Submitted via: CDex 1.51
#
DISCID=9b0ff00b
DTITLE=Michael Herring's Vertigo - Coniferous Revenge
DYEAR=2006
DGENRE=Jazz
TTITLE0=S-ow-ss
TTITLE1=Clancy's New Belt Free Home
TTITLE2="but I don't have the time."
TTITLE3=The Mindtaker
TTITLE4=Through Two Panes of GLass
TTITLE5=Monkey
TTITLE6=Coniferous Revenge
TTITLE7=First Mentor
TTITLE8=Shouting at Squirrels
TTITLE9=Urn
TTITLE10=Couldn't Make it Through/My Songbird
EXTD=YEAR: 2006
EXTT0=
EXTT1=
EXTT2=
EXTT3=
EXTT4=
EXTT5=
EXTT6=
EXTT7=
EXTT8=
EXTT9=
EXTT10=
PLAYORDER=
